<svg id="svg" version="1.1" xmlns="http://www.w3.org/2000/svg" style="display: block;" viewBox="0 0 287 294"><path d="M0,0 L287,0 L287,294 L0,294 Z " transform="translate(0,0)" style="fill: #98C648;"/><path d="M0,0 L287,0 L287,294 L0,294 Z M68,5 L68,6 L60,6 L60,7 L56,7 L56,8 L52,8 L52,9 L49,9 L49,10 L46,10 L46,11 L44,11 L44,12 L42,12 L42,13 L40,13 L40,14 L39,14 L39,15 L37,15 L37,16 L36,16 L36,17 L34,17 L34,18 L33,18 L33,19 L31,19 L31,20 L30,20 L30,21 L29,21 L29,22 L28,22 L28,23 L27,23 L27,24 L25,24 L25,25 L24,25 L24,27 L23,27 L23,28 L22,28 L22,29 L21,29 L21,30 L20,30 L20,31 L19,31 L19,33 L18,33 L18,34 L17,34 L17,35 L16,35 L16,37 L15,37 L15,38 L14,38 L14,40 L13,40 L13,42 L12,42 L12,44 L11,44 L11,46 L10,46 L10,48 L9,48 L9,51 L8,51 L8,54 L7,54 L7,58 L6,58 L6,62 L5,62 L5,189 L6,189 L6,190 L11,190 L11,191 L18,191 L18,192 L20,192 L20,193 L32,193 L32,194 L54,194 L54,193 L60,193 L60,192 L69,192 L69,191 L70,191 L70,187 L71,187 L71,184 L72,184 L72,180 L73,180 L73,176 L74,176 L74,172 L75,172 L75,170 L76,170 L76,165 L77,165 L77,161 L76,161 L76,160 L75,160 L75,159 L74,159 L74,158 L73,158 L73,157 L72,157 L72,156 L71,156 L71,155 L70,155 L70,154 L68,154 L68,153 L67,153 L67,152 L66,152 L66,151 L65,151 L65,150 L64,150 L64,149 L63,149 L63,148 L61,148 L61,147 L60,147 L60,146 L59,146 L59,145 L58,145 L58,144 L57,144 L57,143 L56,143 L56,142 L54,142 L54,141 L53,141 L53,140 L52,140 L52,139 L51,139 L51,138 L50,138 L50,137 L49,137 L49,136 L48,136 L48,135 L47,135 L47,134 L45,134 L45,133 L44,133 L44,132 L43,132 L43,131 L42,131 L42,130 L41,130 L41,129 L40,129 L40,128 L39,128 L39,127 L38,127 L38,126 L36,126 L36,125 L35,125 L35,124 L34,124 L34,123 L33,123 L33,122 L32,122 L32,121 L31,121 L31,120 L29,120 L29,119 L28,119 L28,118 L27,118 L27,117 L26,117 L26,116 L25,116 L25,115 L24,115 L24,114 L23,114 L23,113 L22,113 L22,112 L20,112 L20,111 L19,111 L19,109 L18,109 L18,108 L17,108 L17,100 L18,100 L18,99 L19,99 L19,97 L21,97 L21,96 L22,96 L22,95 L29,95 L29,94 L36,94 L36,93 L45,93 L45,92 L53,92 L53,91 L64,91 L64,90 L72,90 L72,89 L80,89 L80,88 L90,88 L90,87 L99,87 L99,86 L102,86 L102,83 L103,83 L103,81 L104,81 L104,79 L105,79 L105,77 L106,77 L106,74 L107,74 L107,72 L108,72 L108,69 L109,69 L109,67 L110,67 L110,65 L111,65 L111,62 L112,62 L112,60 L113,60 L113,58 L114,58 L114,56 L115,56 L115,53 L116,53 L116,51 L117,51 L117,49 L118,49 L118,47 L119,47 L119,44 L120,44 L120,42 L121,42 L121,40 L122,40 L122,38 L123,38 L123,35 L124,35 L124,33 L125,33 L125,30 L126,30 L126,28 L127,28 L127,26 L128,26 L128,24 L129,24 L129,21 L130,21 L130,19 L131,19 L131,17 L132,17 L132,16 L133,16 L133,15 L134,15 L134,14 L135,14 L135,13 L136,13 L136,12 L143,12 L143,13 L145,13 L145,14 L146,14 L146,15 L147,15 L147,16 L148,16 L148,18 L149,18 L149,21 L150,21 L150,23 L151,23 L151,25 L152,25 L152,27 L153,27 L153,30 L154,30 L154,32 L155,32 L155,34 L156,34 L156,36 L157,36 L157,38 L158,38 L158,41 L159,41 L159,43 L160,43 L160,45 L161,45 L161,47 L162,47 L162,50 L163,50 L163,52 L164,52 L164,54 L165,54 L165,57 L166,57 L166,59 L167,59 L167,61 L168,61 L168,64 L169,64 L169,66 L170,66 L170,68 L171,68 L171,71 L172,71 L172,73 L173,73 L173,75 L174,75 L174,77 L175,77 L175,80 L176,80 L176,82 L177,82 L177,84 L178,84 L178,90 L177,90 L177,92 L176,92 L176,93 L175,93 L175,94 L173,94 L173,95 L171,95 L171,94 L169,94 L169,93 L167,93 L167,91 L166,91 L166,89 L165,89 L165,87 L164,87 L164,85 L163,85 L163,83 L162,83 L162,80 L161,80 L161,78 L160,78 L160,76 L159,76 L159,73 L158,73 L158,71 L157,71 L157,69 L156,69 L156,66 L155,66 L155,64 L154,64 L154,62 L153,62 L153,60 L152,60 L152,57 L151,57 L151,55 L150,55 L150,53 L149,53 L149,50 L148,50 L148,48 L147,48 L147,45 L146,45 L146,43 L145,43 L145,41 L144,41 L144,38 L143,38 L143,36 L142,36 L142,34 L141,34 L141,32 L140,32 L140,31 L139,31 L139,33 L138,33 L138,35 L137,35 L137,37 L136,37 L136,40 L135,40 L135,42 L134,42 L134,44 L133,44 L133,47 L132,47 L132,49 L131,49 L131,52 L130,52 L130,54 L129,54 L129,56 L128,56 L128,58 L127,58 L127,61 L126,61 L126,63 L125,63 L125,65 L124,65 L124,68 L123,68 L123,70 L122,70 L122,72 L121,72 L121,75 L120,75 L120,77 L119,77 L119,79 L118,79 L118,81 L117,81 L117,84 L116,84 L116,86 L115,86 L115,89 L114,89 L114,91 L113,91 L113,93 L112,93 L112,95 L111,95 L111,96 L110,96 L110,97 L109,97 L109,98 L106,98 L106,99 L101,99 L101,100 L91,100 L91,101 L82,101 L82,102 L74,102 L74,103 L64,103 L64,104 L56,104 L56,105 L48,105 L48,106 L37,106 L37,107 L35,107 L35,108 L36,108 L36,109 L37,109 L37,110 L39,110 L39,111 L40,111 L40,112 L41,112 L41,113 L42,113 L42,114 L43,114 L43,115 L44,115 L44,116 L45,116 L45,117 L47,117 L47,118 L48,118 L48,119 L49,119 L49,120 L50,120 L50,121 L51,121 L51,122 L52,122 L52,123 L54,123 L54,124 L55,124 L55,125 L56,125 L56,126 L57,126 L57,127 L58,127 L58,128 L59,128 L59,129 L61,129 L61,130 L62,130 L62,131 L63,131 L63,132 L64,132 L64,133 L65,133 L65,134 L66,134 L66,135 L67,135 L67,136 L68,136 L68,137 L70,137 L70,138 L71,138 L71,139 L72,139 L72,140 L73,140 L73,141 L74,141 L74,142 L75,142 L75,143 L76,143 L76,144 L78,144 L78,145 L79,145 L79,146 L80,146 L80,147 L81,147 L81,148 L82,148 L82,149 L83,149 L83,150 L84,150 L84,151 L86,151 L86,152 L87,152 L87,153 L88,153 L88,154 L89,154 L89,156 L90,156 L90,159 L91,159 L91,163 L90,163 L90,167 L89,167 L89,170 L88,170 L88,174 L87,174 L87,178 L86,178 L86,182 L85,182 L85,185 L84,185 L84,189 L89,189 L89,188 L95,188 L95,187 L107,187 L107,186 L124,186 L124,187 L131,187 L131,188 L136,188 L136,189 L140,189 L140,190 L143,190 L143,191 L146,191 L146,192 L149,192 L149,193 L151,193 L151,194 L154,194 L154,195 L157,195 L157,196 L160,196 L160,197 L163,197 L163,198 L166,198 L166,199 L171,199 L171,200 L190,200 L190,199 L194,199 L194,198 L197,198 L197,197 L199,197 L199,194 L198,194 L198,190 L197,190 L197,186 L196,186 L196,183 L195,183 L195,180 L196,180 L196,178 L197,178 L197,177 L198,177 L198,176 L199,176 L199,175 L205,175 L205,176 L207,176 L207,177 L208,177 L208,178 L209,178 L209,181 L210,181 L210,185 L211,185 L211,188 L212,188 L212,190 L215,190 L215,189 L218,189 L218,188 L223,188 L223,187 L226,187 L226,186 L240,186 L240,185 L258,185 L258,186 L265,186 L265,187 L271,187 L271,188 L276,188 L276,189 L278,189 L278,190 L281,190 L281,191 L283,191 L283,67 L282,67 L282,63 L281,63 L281,58 L280,58 L280,54 L279,54 L279,50 L278,50 L278,48 L277,48 L277,46 L276,46 L276,43 L275,43 L275,42 L274,42 L274,40 L273,40 L273,38 L272,38 L272,36 L271,36 L271,35 L270,35 L270,34 L269,34 L269,32 L268,32 L268,31 L267,31 L267,30 L266,30 L266,28 L265,28 L265,27 L264,27 L264,26 L263,26 L263,25 L262,25 L262,24 L261,24 L261,23 L260,23 L260,22 L258,22 L258,21 L257,21 L257,20 L256,20 L256,19 L255,19 L255,18 L253,18 L253,17 L252,17 L252,16 L250,16 L250,15 L249,15 L249,14 L247,14 L247,13 L245,13 L245,12 L243,12 L243,11 L241,11 L241,10 L238,10 L238,9 L235,9 L235,8 L233,8 L233,7 L229,7 L229,6 L222,6 L222,5 Z " transform="translate(0,0)" style="fill: #0C5938;"/><path d="M0,0 L1,0 L1,1 L2,1 L2,3 L3,3 L3,5 L4,5 L4,7 L5,7 L5,10 L6,10 L6,12 L7,12 L7,14 L8,14 L8,17 L9,17 L9,19 L10,19 L10,22 L11,22 L11,24 L12,24 L12,26 L13,26 L13,29 L14,29 L14,31 L15,31 L15,33 L16,33 L16,35 L17,35 L17,38 L18,38 L18,40 L19,40 L19,42 L20,42 L20,45 L21,45 L21,47 L22,47 L22,49 L23,49 L23,52 L24,52 L24,54 L25,54 L25,56 L26,56 L26,58 L27,58 L27,60 L28,60 L28,62 L30,62 L30,63 L32,63 L32,64 L34,64 L34,63 L36,63 L36,62 L37,62 L37,61 L38,61 L38,59 L39,59 L39,54 L40,54 L40,55 L42,55 L42,56 L46,56 L46,57 L53,57 L53,58 L60,58 L60,59 L59,59 L59,61 L58,61 L58,68 L59,68 L59,69 L60,69 L60,70 L62,70 L62,71 L71,71 L71,72 L79,72 L79,73 L88,73 L88,74 L97,74 L97,75 L107,75 L107,77 L105,77 L105,78 L104,78 L104,79 L103,79 L103,80 L102,80 L102,81 L101,81 L101,82 L100,82 L100,83 L99,83 L99,84 L98,84 L98,85 L96,85 L96,86 L95,86 L95,87 L94,87 L94,88 L93,88 L93,89 L92,89 L92,90 L91,90 L91,91 L89,91 L89,92 L88,92 L88,93 L87,93 L87,94 L86,94 L86,95 L85,95 L85,96 L84,96 L84,97 L83,97 L83,98 L82,98 L82,99 L80,99 L80,100 L79,100 L79,101 L78,101 L78,102 L77,102 L77,103 L76,103 L76,104 L75,104 L75,105 L74,105 L74,106 L72,106 L72,107 L71,107 L71,108 L70,108 L70,109 L69,109 L69,110 L68,110 L68,111 L67,111 L67,112 L65,112 L65,113 L64,113 L64,114 L63,114 L63,115 L62,115 L62,116 L61,116 L61,117 L59,117 L59,118 L58,118 L58,119 L57,119 L57,120 L56,120 L56,123 L55,123 L55,127 L56,127 L56,129 L57,129 L57,130 L59,130 L59,131 L64,131 L64,132 L65,132 L65,135 L66,135 L66,140 L67,140 L67,144 L60,144 L60,145 L59,145 L59,146 L58,146 L58,147 L57,147 L57,149 L56,149 L56,152 L57,152 L57,155 L58,155 L58,159 L59,159 L59,163 L60,163 L60,166 L58,166 L58,167 L55,167 L55,168 L51,168 L51,169 L32,169 L32,168 L27,168 L27,167 L24,167 L24,166 L21,166 L21,165 L18,165 L18,164 L15,164 L15,163 L12,163 L12,162 L10,162 L10,161 L7,161 L7,160 L4,160 L4,159 L1,159 L1,158 L-3,158 L-3,157 L-8,157 L-8,156 L-15,156 L-15,155 L-32,155 L-32,156 L-44,156 L-44,157 L-50,157 L-50,158 L-55,158 L-55,154 L-54,154 L-54,151 L-53,151 L-53,147 L-52,147 L-52,143 L-51,143 L-51,139 L-50,139 L-50,136 L-49,136 L-49,132 L-48,132 L-48,128 L-49,128 L-49,125 L-50,125 L-50,123 L-51,123 L-51,122 L-52,122 L-52,121 L-53,121 L-53,120 L-55,120 L-55,119 L-56,119 L-56,118 L-57,118 L-57,117 L-58,117 L-58,116 L-59,116 L-59,115 L-60,115 L-60,114 L-61,114 L-61,113 L-63,113 L-63,112 L-64,112 L-64,111 L-65,111 L-65,110 L-66,110 L-66,109 L-67,109 L-67,108 L-68,108 L-68,107 L-69,107 L-69,106 L-71,106 L-71,105 L-72,105 L-72,104 L-73,104 L-73,103 L-74,103 L-74,102 L-75,102 L-75,101 L-76,101 L-76,100 L-77,100 L-77,99 L-78,99 L-78,98 L-80,98 L-80,97 L-81,97 L-81,96 L-82,96 L-82,95 L-83,95 L-83,94 L-84,94 L-84,93 L-85,93 L-85,92 L-87,92 L-87,91 L-88,91 L-88,90 L-89,90 L-89,89 L-90,89 L-90,88 L-91,88 L-91,87 L-92,87 L-92,86 L-94,86 L-94,85 L-95,85 L-95,84 L-96,84 L-96,83 L-97,83 L-97,82 L-98,82 L-98,81 L-99,81 L-99,80 L-100,80 L-100,79 L-102,79 L-102,78 L-103,78 L-103,77 L-104,77 L-104,76 L-102,76 L-102,75 L-91,75 L-91,74 L-83,74 L-83,73 L-75,73 L-75,72 L-65,72 L-65,71 L-57,71 L-57,70 L-48,70 L-48,69 L-38,69 L-38,68 L-33,68 L-33,67 L-30,67 L-30,66 L-29,66 L-29,65 L-28,65 L-28,64 L-27,64 L-27,62 L-26,62 L-26,60 L-25,60 L-25,58 L-24,58 L-24,55 L-23,55 L-23,53 L-22,53 L-22,50 L-21,50 L-21,48 L-20,48 L-20,46 L-19,46 L-19,44 L-18,44 L-18,41 L-17,41 L-17,39 L-16,39 L-16,37 L-15,37 L-15,34 L-14,34 L-14,32 L-13,32 L-13,30 L-12,30 L-12,27 L-11,27 L-11,25 L-10,25 L-10,23 L-9,23 L-9,21 L-8,21 L-8,18 L-7,18 L-7,16 L-6,16 L-6,13 L-5,13 L-5,11 L-4,11 L-4,9 L-3,9 L-3,6 L-2,6 L-2,4 L-1,4 L-1,2 L0,2 Z " transform="translate(139,31)" style="fill: #FCFEFD;"/><path d="M0,0 L287,0 L287,65 L286,65 L286,59 L285,59 L285,55 L284,55 L284,51 L283,51 L283,48 L282,48 L282,46 L281,46 L281,44 L280,44 L280,41 L279,41 L279,39 L278,39 L278,38 L277,38 L277,36 L276,36 L276,34 L275,34 L275,33 L274,33 L274,31 L273,31 L273,30 L272,30 L272,29 L271,29 L271,27 L270,27 L270,26 L269,26 L269,25 L268,25 L268,24 L267,24 L267,23 L266,23 L266,22 L265,22 L265,21 L264,21 L264,20 L263,20 L263,19 L262,19 L262,18 L261,18 L261,17 L259,17 L259,16 L258,16 L258,15 L257,15 L257,14 L255,14 L255,13 L254,13 L254,12 L252,12 L252,11 L251,11 L251,10 L249,10 L249,9 L247,9 L247,8 L245,8 L245,7 L243,7 L243,6 L240,6 L240,5 L237,5 L237,4 L234,4 L234,3 L229,3 L229,2 L224,2 L224,1 L64,1 L64,2 L58,2 L58,3 L54,3 L54,4 L50,4 L50,5 L47,5 L47,6 L45,6 L45,7 L43,7 L43,8 L40,8 L40,9 L39,9 L39,10 L37,10 L37,11 L35,11 L35,12 L33,12 L33,13 L32,13 L32,14 L31,14 L31,15 L29,15 L29,16 L28,16 L28,17 L27,17 L27,18 L25,18 L25,19 L24,19 L24,20 L23,20 L23,21 L22,21 L22,22 L21,22 L21,23 L20,23 L20,24 L19,24 L19,25 L18,25 L18,27 L17,27 L17,28 L16,28 L16,29 L15,29 L15,30 L14,30 L14,32 L13,32 L13,33 L12,33 L12,35 L11,35 L11,36 L10,36 L10,38 L9,38 L9,40 L8,40 L8,42 L7,42 L7,44 L6,44 L6,46 L5,46 L5,49 L4,49 L4,52 L3,52 L3,55 L2,55 L2,60 L1,60 L1,66 L0,66 Z " transform="translate(0,0)" style="fill: #FBFDFD;"/><path d="M0,0 L8,0 L8,1 L20,1 L20,2 L28,2 L28,3 L38,3 L38,4 L47,4 L47,5 L56,5 L56,6 L58,6 L58,7 L60,7 L60,8 L61,8 L61,9 L62,9 L62,10 L63,10 L63,12 L64,12 L64,18 L63,18 L63,20 L62,20 L62,21 L61,21 L61,22 L60,22 L60,23 L59,23 L59,24 L58,24 L58,25 L57,25 L57,26 L56,26 L56,27 L55,27 L55,28 L54,28 L54,29 L53,29 L53,30 L51,30 L51,31 L50,31 L50,32 L49,32 L49,33 L48,33 L48,34 L47,34 L47,35 L46,35 L46,36 L45,36 L45,37 L44,37 L44,38 L42,38 L42,39 L41,39 L41,40 L40,40 L40,41 L39,41 L39,42 L38,42 L38,43 L37,43 L37,44 L36,44 L36,45 L35,45 L35,46 L33,46 L33,47 L32,47 L32,48 L31,48 L31,49 L30,49 L30,50 L29,50 L29,51 L28,51 L28,52 L27,52 L27,53 L25,53 L25,54 L24,54 L24,55 L23,55 L23,56 L22,56 L22,57 L21,57 L21,58 L20,58 L20,59 L19,59 L19,60 L17,60 L17,61 L16,61 L16,62 L15,62 L15,63 L14,63 L14,64 L13,64 L13,65 L12,65 L12,66 L11,66 L11,67 L10,67 L10,68 L9,68 L9,69 L7,69 L7,70 L6,70 L6,71 L5,71 L5,72 L4,72 L4,73 L-2,73 L-2,72 L-4,72 L-4,71 L-5,71 L-5,69 L-6,69 L-6,65 L-5,65 L-5,62 L-4,62 L-4,61 L-3,61 L-3,60 L-2,60 L-2,59 L0,59 L0,58 L1,58 L1,57 L2,57 L2,56 L3,56 L3,55 L4,55 L4,54 L6,54 L6,53 L7,53 L7,52 L8,52 L8,51 L9,51 L9,50 L10,50 L10,49 L11,49 L11,48 L13,48 L13,47 L14,47 L14,46 L15,46 L15,45 L16,45 L16,44 L17,44 L17,43 L18,43 L18,42 L19,42 L19,41 L21,41 L21,40 L22,40 L22,39 L23,39 L23,38 L24,38 L24,37 L25,37 L25,36 L26,36 L26,35 L27,35 L27,34 L28,34 L28,33 L30,33 L30,32 L31,32 L31,31 L32,31 L32,30 L33,30 L33,29 L34,29 L34,28 L35,28 L35,27 L37,27 L37,26 L38,26 L38,25 L39,25 L39,24 L40,24 L40,23 L41,23 L41,22 L42,22 L42,21 L43,21 L43,20 L44,20 L44,19 L46,19 L46,17 L36,17 L36,16 L27,16 L27,15 L18,15 L18,14 L10,14 L10,13 L1,13 L1,12 L-1,12 L-1,11 L-2,11 L-2,10 L-3,10 L-3,3 L-2,3 L-2,1 L0,1 Z " transform="translate(200,89)" style="fill: #115735;"/><path d="M0,0 L3,0 L3,1 L5,1 L5,2 L6,2 L6,3 L7,3 L7,4 L8,4 L8,10 L7,10 L7,12 L6,12 L6,13 L5,13 L5,14 L4,14 L4,15 L3,15 L3,16 L2,16 L2,17 L1,17 L1,18 L0,18 L0,20 L-1,20 L-1,21 L-2,21 L-2,22 L-3,22 L-3,23 L-4,23 L-4,24 L-5,24 L-5,25 L-6,25 L-6,27 L-7,27 L-7,28 L-8,28 L-8,29 L-9,29 L-9,30 L-10,30 L-10,31 L-11,31 L-11,32 L-12,32 L-12,33 L-13,33 L-13,35 L-14,35 L-14,36 L-15,36 L-15,37 L-16,37 L-16,38 L-17,38 L-17,39 L-18,39 L-18,40 L-19,40 L-19,42 L-20,42 L-20,43 L-21,43 L-21,44 L-22,44 L-22,45 L-23,45 L-23,46 L-24,46 L-24,47 L-25,47 L-25,49 L-26,49 L-26,50 L-27,50 L-27,51 L-28,51 L-28,52 L-29,52 L-29,53 L-30,53 L-30,54 L-31,54 L-31,56 L-32,56 L-32,57 L-33,57 L-33,58 L-34,58 L-34,59 L-35,59 L-35,60 L-37,60 L-37,61 L-44,61 L-44,60 L-45,60 L-45,59 L-46,59 L-46,58 L-47,58 L-47,57 L-48,57 L-48,56 L-49,56 L-49,55 L-50,55 L-50,54 L-51,54 L-51,53 L-52,53 L-52,52 L-53,52 L-53,51 L-54,51 L-54,50 L-55,50 L-55,49 L-56,49 L-56,47 L-57,47 L-57,46 L-58,46 L-58,45 L-59,45 L-59,44 L-60,44 L-60,43 L-61,43 L-61,42 L-62,42 L-62,41 L-63,41 L-63,40 L-64,40 L-64,38 L-65,38 L-65,37 L-66,37 L-66,33 L-65,33 L-65,31 L-64,31 L-64,30 L-63,30 L-63,29 L-61,29 L-61,28 L-56,28 L-56,29 L-55,29 L-55,30 L-53,30 L-53,31 L-52,31 L-52,32 L-51,32 L-51,33 L-50,33 L-50,34 L-49,34 L-49,35 L-48,35 L-48,37 L-47,37 L-47,38 L-46,38 L-46,39 L-45,39 L-45,40 L-44,40 L-44,41 L-43,41 L-43,42 L-42,42 L-42,43 L-41,43 L-41,44 L-40,44 L-40,43 L-39,43 L-39,42 L-38,42 L-38,41 L-37,41 L-37,40 L-36,40 L-36,39 L-35,39 L-35,37 L-34,37 L-34,36 L-33,36 L-33,35 L-32,35 L-32,34 L-31,34 L-31,33 L-30,33 L-30,32 L-29,32 L-29,31 L-28,31 L-28,30 L-27,30 L-27,28 L-26,28 L-26,27 L-25,27 L-25,26 L-24,26 L-24,25 L-23,25 L-23,24 L-22,24 L-22,23 L-21,23 L-21,22 L-20,22 L-20,20 L-19,20 L-19,19 L-18,19 L-18,18 L-17,18 L-17,17 L-16,17 L-16,16 L-15,16 L-15,15 L-14,15 L-14,14 L-13,14 L-13,12 L-12,12 L-12,11 L-11,11 L-11,10 L-10,10 L-10,9 L-9,9 L-9,8 L-8,8 L-8,7 L-7,7 L-7,5 L-6,5 L-6,4 L-5,4 L-5,3 L-4,3 L-4,2 L-3,2 L-3,1 L0,1 Z " transform="translate(170,110)" style="fill: #12583F;"/><path d="M0,0 L1,0 L1,8 L2,8 L2,12 L3,12 L3,17 L4,17 L4,20 L5,20 L5,23 L6,23 L6,25 L7,25 L7,27 L8,27 L8,29 L9,29 L9,31 L10,31 L10,32 L11,32 L11,34 L12,34 L12,36 L13,36 L13,37 L14,37 L14,39 L15,39 L15,40 L16,40 L16,41 L17,41 L17,42 L18,42 L18,44 L19,44 L19,45 L20,45 L20,46 L21,46 L21,47 L22,47 L22,48 L23,48 L23,49 L24,49 L24,50 L25,50 L25,51 L27,51 L27,52 L28,52 L28,53 L29,53 L29,54 L31,54 L31,55 L32,55 L32,56 L33,56 L33,57 L35,57 L35,58 L37,58 L37,59 L38,59 L38,60 L40,60 L40,61 L42,61 L42,62 L44,62 L44,63 L47,63 L47,64 L49,64 L49,65 L52,65 L52,66 L56,66 L56,67 L60,67 L60,68 L67,68 L67,69 L0,69 Z " transform="translate(0,225)" style="fill: #FBFDFD;"/><path d="M0,0 L1,0 L1,65 L-66,65 L-66,64 L-59,64 L-59,63 L-54,63 L-54,62 L-51,62 L-51,61 L-48,61 L-48,60 L-45,60 L-45,59 L-43,59 L-43,58 L-41,58 L-41,57 L-39,57 L-39,56 L-37,56 L-37,55 L-35,55 L-35,54 L-33,54 L-33,53 L-32,53 L-32,52 L-30,52 L-30,51 L-29,51 L-29,50 L-28,50 L-28,49 L-26,49 L-26,48 L-25,48 L-25,47 L-24,47 L-24,46 L-23,46 L-23,45 L-22,45 L-22,44 L-21,44 L-21,43 L-20,43 L-20,42 L-19,42 L-19,41 L-18,41 L-18,40 L-17,40 L-17,39 L-16,39 L-16,38 L-15,38 L-15,37 L-14,37 L-14,35 L-13,35 L-13,34 L-12,34 L-12,32 L-11,32 L-11,31 L-10,31 L-10,29 L-9,29 L-9,28 L-8,28 L-8,26 L-7,26 L-7,24 L-6,24 L-6,22 L-5,22 L-5,19 L-4,19 L-4,17 L-3,17 L-3,14 L-2,14 L-2,11 L-1,11 L-1,6 L0,6 Z " transform="translate(286,229)" style="fill: #FBFDFD;"/><path d="M0,0 L160,0 L160,1 L165,1 L165,2 L170,2 L170,3 L173,3 L173,4 L176,4 L176,5 L179,5 L179,6 L181,6 L181,7 L183,7 L183,8 L185,8 L185,9 L187,9 L187,10 L188,10 L188,11 L190,11 L190,12 L191,12 L191,13 L193,13 L193,14 L194,14 L194,15 L195,15 L195,16 L197,16 L197,17 L198,17 L198,18 L199,18 L199,19 L200,19 L200,20 L201,20 L201,21 L202,21 L202,22 L203,22 L203,23 L204,23 L204,24 L205,24 L205,25 L206,25 L206,26 L207,26 L207,28 L208,28 L208,29 L209,29 L209,30 L210,30 L210,31 L208,31 L208,35 L207,35 L207,34 L206,34 L206,33 L205,33 L205,31 L204,31 L204,30 L203,30 L203,29 L202,29 L202,27 L201,27 L201,26 L200,26 L200,25 L199,25 L199,24 L198,24 L198,23 L197,23 L197,22 L196,22 L196,21 L194,21 L194,20 L193,20 L193,19 L192,19 L192,18 L191,18 L191,17 L189,17 L189,16 L188,16 L188,15 L186,15 L186,14 L185,14 L185,13 L183,13 L183,12 L181,12 L181,11 L179,11 L179,10 L177,10 L177,9 L174,9 L174,8 L171,8 L171,7 L169,7 L169,6 L165,6 L165,5 L158,5 L158,4 L4,4 L4,5 L-4,5 L-4,6 L-8,6 L-8,7 L-12,7 L-12,8 L-15,8 L-15,9 L-18,9 L-18,10 L-20,10 L-20,11 L-22,11 L-22,12 L-24,12 L-24,13 L-25,13 L-25,14 L-27,14 L-27,15 L-28,15 L-28,16 L-30,16 L-30,17 L-31,17 L-31,18 L-33,18 L-33,19 L-34,19 L-34,20 L-35,20 L-35,21 L-36,21 L-36,22 L-37,22 L-37,23 L-39,23 L-39,24 L-40,24 L-40,26 L-41,26 L-41,27 L-42,27 L-42,28 L-43,28 L-43,29 L-44,29 L-44,30 L-45,30 L-45,32 L-46,32 L-46,33 L-47,33 L-47,34 L-48,34 L-48,31 L-49,31 L-49,32 L-50,32 L-50,33 L-51,33 L-51,34 L-52,34 L-52,32 L-51,32 L-51,31 L-50,31 L-50,29 L-49,29 L-49,28 L-48,28 L-48,27 L-47,27 L-47,26 L-46,26 L-46,24 L-45,24 L-45,23 L-44,23 L-44,22 L-43,22 L-43,21 L-42,21 L-42,20 L-41,20 L-41,19 L-40,19 L-40,18 L-39,18 L-39,17 L-37,17 L-37,16 L-36,16 L-36,15 L-35,15 L-35,14 L-33,14 L-33,13 L-32,13 L-32,12 L-31,12 L-31,11 L-29,11 L-29,10 L-27,10 L-27,9 L-25,9 L-25,8 L-24,8 L-24,7 L-21,7 L-21,6 L-19,6 L-19,5 L-17,5 L-17,4 L-14,4 L-14,3 L-10,3 L-10,2 L-6,2 L-6,1 L0,1 Z " transform="translate(64,1)" style="fill: #22582E;"/><path d="M0,0 L5,0 L5,1 L6,1 L6,2 L7,2 L7,39 L6,39 L6,40 L5,40 L5,41 L2,41 L2,40 L0,40 L0,38 L-1,38 L-1,39 L-2,39 L-2,40 L-5,40 L-5,41 L-12,41 L-12,40 L-14,40 L-14,39 L-16,39 L-16,38 L-17,38 L-17,37 L-18,37 L-18,36 L-19,36 L-19,35 L-20,35 L-20,34 L-21,34 L-21,32 L-22,32 L-22,20 L-21,20 L-21,19 L-20,19 L-20,17 L-19,17 L-19,16 L-18,16 L-18,15 L-17,15 L-17,14 L-16,14 L-16,13 L-13,13 L-13,12 L-4,12 L-4,13 L-2,13 L-2,14 L-1,14 L-1,2 L0,2 Z " transform="translate(224,205)" style="fill: #F5FBFA;"/><path d="M0,0 L5,0 L5,1 L8,1 L8,2 L10,2 L10,3 L11,3 L11,4 L12,4 L12,3 L14,3 L14,2 L15,2 L15,1 L19,1 L19,0 L22,0 L22,1 L26,1 L26,2 L28,2 L28,3 L29,3 L29,4 L30,4 L30,5 L31,5 L31,7 L32,7 L32,9 L33,9 L33,27 L32,27 L32,29 L31,29 L31,30 L27,30 L27,29 L26,29 L26,28 L25,28 L25,10 L24,10 L24,9 L23,9 L23,8 L17,8 L17,9 L16,9 L16,10 L15,10 L15,27 L14,27 L14,29 L12,29 L12,30 L9,30 L9,29 L8,29 L8,28 L7,28 L7,11 L6,11 L6,9 L5,9 L5,8 L-1,8 L-1,9 L-3,9 L-3,11 L-4,11 L-4,28 L-5,28 L-5,29 L-6,29 L-6,30 L-9,30 L-9,29 L-11,29 L-11,2 L-10,2 L-10,1 L-5,1 L-5,2 L-4,2 L-4,3 L-3,3 L-3,2 L-2,2 L-2,1 L0,1 Z " transform="translate(130,216)" style="fill: #F4FBF9;"/><path d="M0,0 L4,0 L4,1 L6,1 L6,2 L7,2 L7,3 L8,3 L8,5 L9,5 L9,8 L10,8 L10,10 L11,10 L11,13 L12,13 L12,16 L13,16 L13,18 L14,18 L14,21 L15,21 L15,23 L16,23 L16,26 L17,26 L17,28 L18,28 L18,30 L19,30 L19,33 L20,33 L20,37 L19,37 L19,38 L17,38 L17,39 L14,39 L14,38 L13,38 L13,37 L12,37 L12,35 L11,35 L11,32 L10,32 L10,31 L-7,31 L-7,32 L-8,32 L-8,35 L-9,35 L-9,37 L-10,37 L-10,38 L-11,38 L-11,39 L-14,39 L-14,38 L-15,38 L-15,37 L-16,37 L-16,33 L-15,33 L-15,31 L-14,31 L-14,28 L-13,28 L-13,25 L-12,25 L-12,23 L-11,23 L-11,21 L-10,21 L-10,18 L-9,18 L-9,15 L-8,15 L-8,13 L-7,13 L-7,10 L-6,10 L-6,7 L-5,7 L-5,5 L-4,5 L-4,3 L-3,3 L-3,2 L-2,2 L-2,1 L0,1 Z " transform="translate(48,207)" style="fill: #F6FBFA;"/><path d="M0,0 L10,0 L10,1 L12,1 L12,2 L13,2 L13,3 L15,3 L15,4 L16,4 L16,5 L17,5 L17,6 L18,6 L18,8 L19,8 L19,10 L20,10 L20,20 L19,20 L19,22 L18,22 L18,24 L17,24 L17,25 L16,25 L16,26 L15,26 L15,27 L14,27 L14,28 L12,28 L12,29 L10,29 L10,30 L0,30 L0,29 L-3,29 L-3,28 L-5,28 L-5,27 L-6,27 L-6,26 L-7,26 L-7,25 L-8,25 L-8,23 L-9,23 L-9,22 L-10,22 L-10,18 L-11,18 L-11,11 L-10,11 L-10,9 L-9,9 L-9,7 L-8,7 L-8,6 L-7,6 L-7,5 L-6,5 L-6,4 L-5,4 L-5,3 L-4,3 L-4,2 L-2,2 L-2,1 L0,1 Z " transform="translate(178,216)" style="fill: #95C552;"/><path d="M0,0 L11,0 L11,1 L13,1 L13,2 L14,2 L14,3 L16,3 L16,4 L17,4 L17,6 L18,6 L18,7 L19,7 L19,9 L20,9 L20,19 L19,19 L19,22 L18,22 L18,23 L17,23 L17,24 L16,24 L16,25 L15,25 L15,26 L14,26 L14,27 L12,27 L12,28 L10,28 L10,29 L2,29 L2,28 L-1,28 L-1,27 L-3,27 L-3,26 L-4,26 L-4,25 L-5,25 L-5,24 L-6,24 L-6,23 L-7,23 L-7,22 L-8,22 L-8,19 L-9,19 L-9,9 L-8,9 L-8,7 L-7,7 L-7,5 L-6,5 L-6,4 L-5,4 L-5,3 L-4,3 L-4,2 L-2,2 L-2,1 L0,1 Z " transform="translate(245,217)" style="fill: #F5FBFA;"/><path d="M0,0 L5,0 L5,1 L6,1 L6,2 L7,2 L7,1 L8,1 L8,0 L19,0 L19,1 L21,1 L21,2 L22,2 L22,3 L23,3 L23,4 L24,4 L24,6 L25,6 L25,8 L26,8 L26,26 L25,26 L25,28 L23,28 L23,29 L20,29 L20,28 L19,28 L19,27 L18,27 L18,9 L17,9 L17,8 L16,8 L16,7 L9,7 L9,8 L8,8 L8,9 L7,9 L7,26 L6,26 L6,28 L4,28 L4,29 L1,29 L1,28 L0,28 L0,27 L-1,27 L-1,1 L0,1 Z " transform="translate(73,217)" style="fill: #F4FAF9;"/><path d="M0,0 L5,0 L5,1 L6,1 L6,27 L5,27 L5,28 L4,28 L4,29 L1,29 L1,28 L0,28 L0,27 L-1,27 L-1,1 L0,1 Z " transform="translate(106,217)" style="fill: #F9FDFD;"/><path d="M0,0 L7,0 L7,1 L9,1 L9,2 L10,2 L10,4 L11,4 L11,11 L10,11 L10,12 L9,12 L9,13 L8,13 L8,14 L7,14 L7,15 L1,15 L1,14 L-1,14 L-1,13 L-2,13 L-2,12 L-3,12 L-3,10 L-4,10 L-4,5 L-3,5 L-3,3 L-2,3 L-2,1 L0,1 Z " transform="translate(247,224)" style="fill: #175642;"/><path d="M0,0 L7,0 L7,1 L8,1 L8,2 L9,2 L9,3 L10,3 L10,5 L11,5 L11,9 L10,9 L10,12 L9,12 L9,13 L8,13 L8,14 L6,14 L6,15 L0,15 L0,14 L-1,14 L-1,13 L-2,13 L-2,12 L-3,12 L-3,10 L-4,10 L-4,4 L-3,4 L-3,2 L-2,2 L-2,1 L0,1 Z " transform="translate(213,224)" style="fill: #124B38;"/><path d="M0,0 L3,0 L3,1 L4,1 L4,5 L3,5 L3,6 L2,6 L2,7 L1,7 L1,8 L0,8 L0,9 L-1,9 L-1,10 L-2,10 L-2,11 L-3,11 L-3,12 L-4,12 L-4,13 L-5,13 L-5,14 L-6,14 L-6,15 L-10,15 L-10,14 L-11,14 L-11,13 L-12,13 L-12,12 L-13,12 L-13,11 L-14,11 L-14,10 L-15,10 L-15,7 L-14,7 L-14,6 L-10,6 L-10,7 L-9,7 L-9,8 L-6,8 L-6,6 L-4,6 L-4,4 L-3,4 L-3,3 L-2,3 L-2,2 L-1,2 L-1,1 L0,1 Z " transform="translate(188,223)" style="fill: #F7FBEB;"/><path d="M0,0 L1,0 L1,1 L2,1 L2,3 L3,3 L3,6 L4,6 L4,9 L5,9 L5,11 L6,11 L6,14 L-5,14 L-5,13 L-4,13 L-4,10 L-3,10 L-3,8 L-2,8 L-2,5 L-1,5 L-1,2 L0,2 Z " transform="translate(49,217)" style="fill: #285C4B;"/><path d="M0,0 L3,0 L3,1 L4,1 L4,2 L5,2 L5,3 L6,3 L6,7 L5,7 L5,8 L4,8 L4,9 L-1,9 L-1,8 L-2,8 L-2,7 L-3,7 L-3,3 L-2,3 L-2,1 L0,1 Z " transform="translate(107,204)" style="fill: #ECF8F5;"/><path d="M0,0 L17,0 L17,1 L2,1 L2,2 L1,2 L1,3 L0,3 L0,4 L-1,4 L-1,1 L0,1 Z " transform="translate(41,238)" style="fill: #3A5F51;"/><path d="M0,0 L2,0 L2,3 L1,3 L1,2 L0,2 L0,3 L-2,3 L-2,2 L-1,2 L-1,1 L0,1 Z M-3,3 L-2,3 L-2,6 L-3,6 L-3,7 L-4,7 L-4,8 L-5,8 L-5,9 L-6,9 L-6,7 L-5,7 L-5,5 L-4,5 L-4,4 L-3,4 Z " transform="translate(174,218)" style="fill: #85C465;"/></svg>