<svg id="svg" version="1.1" xmlns="http://www.w3.org/2000/svg" style="display: block;" viewBox="0 0 741 282"><path d="M0,0 L741,0 L741,282 L0,282 Z " transform="translate(0,0)" style="fill: #FEFEFE;"/><path d="M0,0 L13,0 L13,1 L14,1 L14,2 L15,2 L15,3 L16,3 L16,4 L17,4 L17,6 L18,6 L18,122 L17,122 L17,123 L16,123 L16,125 L14,125 L14,127 L10,127 L10,128 L2,128 L2,127 L0,127 L0,126 L-1,126 L-1,125 L-2,125 L-2,124 L-3,124 L-3,123 L-4,123 L-4,120 L-5,120 L-5,119 L-6,119 L-6,120 L-7,120 L-7,121 L-8,121 L-8,122 L-9,122 L-9,123 L-11,123 L-11,124 L-12,124 L-12,125 L-14,125 L-14,126 L-16,126 L-16,127 L-20,127 L-20,128 L-24,128 L-24,129 L-42,129 L-42,128 L-44,128 L-44,127 L-47,127 L-47,126 L-50,126 L-50,125 L-52,125 L-52,124 L-53,124 L-53,123 L-55,123 L-55,122 L-56,122 L-56,121 L-58,121 L-58,120 L-59,120 L-59,119 L-60,119 L-60,118 L-62,118 L-62,117 L-63,117 L-63,115 L-64,115 L-64,114 L-65,114 L-65,113 L-66,113 L-66,112 L-67,112 L-67,111 L-68,111 L-68,109 L-69,109 L-69,107 L-70,107 L-70,104 L-71,104 L-71,103 L-72,103 L-72,99 L-73,99 L-73,97 L-74,97 L-74,92 L-75,92 L-75,74 L-74,74 L-74,68 L-73,68 L-73,65 L-72,65 L-72,63 L-71,63 L-71,60 L-70,60 L-70,59 L-69,59 L-69,57 L-68,57 L-68,56 L-67,56 L-67,54 L-66,54 L-66,52 L-65,52 L-65,51 L-64,51 L-64,50 L-63,50 L-63,48 L-62,48 L-62,47 L-61,47 L-61,46 L-60,46 L-60,45 L-58,45 L-58,44 L-57,44 L-57,43 L-56,43 L-56,42 L-54,42 L-54,41 L-52,41 L-52,40 L-50,40 L-50,39 L-47,39 L-47,38 L-43,38 L-43,37 L-41,37 L-41,36 L-20,36 L-20,37 L-18,37 L-18,38 L-15,38 L-15,39 L-13,39 L-13,40 L-11,40 L-11,41 L-10,41 L-10,42 L-8,42 L-8,43 L-7,43 L-7,44 L-6,44 L-6,45 L-5,45 L-5,43 L-4,43 L-4,4 L-3,4 L-3,3 L-2,3 L-2,2 L-1,2 L-1,1 L0,1 Z " transform="translate(612,152)" style="fill: #9CC84B;"/><path d="M0,0 L11,0 L11,1 L16,1 L16,2 L20,2 L20,3 L22,3 L22,4 L24,4 L24,5 L26,5 L26,6 L28,6 L28,7 L29,7 L29,8 L30,8 L30,9 L32,9 L32,10 L33,10 L33,11 L34,11 L34,13 L35,13 L35,14 L36,14 L36,15 L37,15 L37,17 L38,17 L38,19 L39,19 L39,21 L40,21 L40,23 L41,23 L41,27 L42,27 L42,31 L43,31 L43,88 L42,88 L42,89 L41,89 L41,90 L40,90 L40,91 L39,91 L39,92 L38,92 L38,93 L26,93 L26,92 L24,92 L24,91 L23,91 L23,90 L22,90 L22,88 L21,88 L21,86 L20,86 L20,34 L19,34 L19,32 L18,32 L18,30 L17,30 L17,28 L16,28 L16,27 L15,27 L15,26 L14,26 L14,25 L12,25 L12,24 L10,24 L10,23 L6,23 L6,22 L0,22 L0,23 L-3,23 L-3,24 L-6,24 L-6,25 L-7,25 L-7,26 L-8,26 L-8,27 L-9,27 L-9,28 L-10,28 L-10,29 L-11,29 L-11,30 L-12,30 L-12,33 L-13,33 L-13,35 L-14,35 L-14,86 L-15,86 L-15,88 L-16,88 L-16,90 L-17,90 L-17,91 L-18,91 L-18,92 L-20,92 L-20,93 L-23,93 L-23,94 L-28,94 L-28,93 L-31,93 L-31,92 L-33,92 L-33,91 L-34,91 L-34,90 L-35,90 L-35,89 L-36,89 L-36,87 L-37,87 L-37,37 L-38,37 L-38,33 L-39,33 L-39,31 L-40,31 L-40,29 L-41,29 L-41,28 L-42,28 L-42,27 L-43,27 L-43,26 L-44,26 L-44,25 L-45,25 L-45,24 L-47,24 L-47,23 L-50,23 L-50,22 L-58,22 L-58,23 L-61,23 L-61,24 L-63,24 L-63,25 L-65,25 L-65,26 L-66,26 L-66,27 L-67,27 L-67,28 L-68,28 L-68,29 L-69,29 L-69,31 L-70,31 L-70,33 L-71,33 L-71,36 L-72,36 L-72,86 L-73,86 L-73,89 L-74,89 L-74,90 L-75,90 L-75,91 L-76,91 L-76,92 L-78,92 L-78,93 L-89,93 L-89,92 L-91,92 L-91,91 L-92,91 L-92,90 L-93,90 L-93,89 L-94,89 L-94,87 L-95,87 L-95,8 L-94,8 L-94,6 L-93,6 L-93,5 L-92,5 L-92,4 L-91,4 L-91,3 L-89,3 L-89,2 L-78,2 L-78,3 L-76,3 L-76,4 L-75,4 L-75,5 L-74,5 L-74,6 L-73,6 L-73,8 L-72,8 L-72,9 L-71,9 L-71,8 L-70,8 L-70,7 L-69,7 L-69,6 L-67,6 L-67,5 L-66,5 L-66,4 L-64,4 L-64,3 L-61,3 L-61,2 L-58,2 L-58,1 L-39,1 L-39,2 L-35,2 L-35,3 L-33,3 L-33,4 L-31,4 L-31,5 L-29,5 L-29,6 L-28,6 L-28,7 L-26,7 L-26,8 L-25,8 L-25,9 L-24,9 L-24,10 L-23,10 L-23,11 L-21,11 L-21,10 L-20,10 L-20,9 L-19,9 L-19,8 L-18,8 L-18,7 L-16,7 L-16,6 L-15,6 L-15,5 L-13,5 L-13,4 L-11,4 L-11,3 L-8,3 L-8,2 L-5,2 L-5,1 L0,1 Z " transform="translate(368,187)" style="fill: #0A5738;"/><path d="M0,0 L13,0 L13,1 L16,1 L16,2 L18,2 L18,3 L19,3 L19,4 L20,4 L20,5 L21,5 L21,6 L22,6 L22,7 L23,7 L23,9 L24,9 L24,11 L25,11 L25,13 L26,13 L26,16 L27,16 L27,18 L28,18 L28,21 L29,21 L29,24 L30,24 L30,26 L31,26 L31,29 L32,29 L32,32 L33,32 L33,35 L34,35 L34,37 L35,37 L35,40 L36,40 L36,43 L37,43 L37,45 L38,45 L38,48 L39,48 L39,50 L40,50 L40,53 L41,53 L41,56 L42,56 L42,58 L43,58 L43,61 L44,61 L44,64 L45,64 L45,66 L46,66 L46,69 L47,69 L47,72 L48,72 L48,74 L49,74 L49,77 L50,77 L50,80 L51,80 L51,83 L52,83 L52,85 L53,85 L53,88 L54,88 L54,91 L55,91 L55,93 L56,93 L56,96 L57,96 L57,98 L58,98 L58,101 L59,101 L59,104 L60,104 L60,107 L61,107 L61,113 L60,113 L60,116 L59,116 L59,117 L58,117 L58,118 L57,118 L57,119 L56,119 L56,120 L54,120 L54,121 L51,121 L51,122 L47,122 L47,121 L44,121 L44,120 L42,120 L42,119 L41,119 L41,118 L40,118 L40,117 L39,117 L39,115 L38,115 L38,112 L37,112 L37,110 L36,110 L36,107 L35,107 L35,104 L34,104 L34,101 L33,101 L33,99 L32,99 L32,96 L31,96 L31,95 L-20,95 L-20,96 L-21,96 L-21,99 L-22,99 L-22,102 L-23,102 L-23,105 L-24,105 L-24,107 L-25,107 L-25,110 L-26,110 L-26,113 L-27,113 L-27,115 L-28,115 L-28,117 L-29,117 L-29,118 L-30,118 L-30,119 L-31,119 L-31,120 L-33,120 L-33,121 L-42,121 L-42,120 L-44,120 L-44,119 L-46,119 L-46,118 L-47,118 L-47,116 L-48,116 L-48,114 L-49,114 L-49,106 L-48,106 L-48,103 L-47,103 L-47,101 L-46,101 L-46,98 L-45,98 L-45,95 L-44,95 L-44,93 L-43,93 L-43,90 L-42,90 L-42,88 L-41,88 L-41,85 L-40,85 L-40,82 L-39,82 L-39,80 L-38,80 L-38,77 L-37,77 L-37,74 L-36,74 L-36,71 L-35,71 L-35,69 L-34,69 L-34,66 L-33,66 L-33,64 L-32,64 L-32,61 L-31,61 L-31,58 L-30,58 L-30,56 L-29,56 L-29,53 L-28,53 L-28,50 L-27,50 L-27,48 L-26,48 L-26,45 L-25,45 L-25,42 L-24,42 L-24,40 L-23,40 L-23,37 L-22,37 L-22,34 L-21,34 L-21,31 L-20,31 L-20,29 L-19,29 L-19,26 L-18,26 L-18,24 L-17,24 L-17,21 L-16,21 L-16,19 L-15,19 L-15,16 L-14,16 L-14,13 L-13,13 L-13,11 L-12,11 L-12,9 L-11,9 L-11,7 L-10,7 L-10,6 L-9,6 L-9,5 L-8,5 L-8,4 L-7,4 L-7,3 L-6,3 L-6,2 L-4,2 L-4,1 L0,1 Z " transform="translate(50,159)" style="fill: #0B5739;"/><path d="M0,0 L18,0 L18,1 L23,1 L23,2 L25,2 L25,3 L27,3 L27,4 L30,4 L30,5 L31,5 L31,6 L33,6 L33,7 L35,7 L35,8 L36,8 L36,9 L38,9 L38,11 L40,11 L40,12 L41,12 L41,13 L42,13 L42,14 L43,14 L43,15 L44,15 L44,17 L45,17 L45,18 L46,18 L46,19 L47,19 L47,20 L48,20 L48,22 L49,22 L49,24 L50,24 L50,25 L51,25 L51,27 L52,27 L52,30 L53,30 L53,33 L54,33 L54,39 L55,39 L55,54 L54,54 L54,59 L53,59 L53,62 L52,62 L52,64 L51,64 L51,66 L50,66 L50,68 L49,68 L49,71 L48,71 L48,72 L47,72 L47,74 L46,74 L46,75 L45,75 L45,76 L44,76 L44,78 L43,78 L43,79 L42,79 L42,80 L41,80 L41,81 L40,81 L40,82 L38,82 L38,83 L37,83 L37,84 L35,84 L35,85 L34,85 L34,86 L33,86 L33,87 L31,87 L31,88 L29,88 L29,89 L26,89 L26,90 L24,90 L24,91 L20,91 L20,92 L16,92 L16,93 L12,93 L12,94 L3,94 L3,93 L-2,93 L-2,92 L-6,92 L-6,91 L-11,91 L-11,90 L-13,90 L-13,89 L-15,89 L-15,88 L-17,88 L-17,87 L-19,87 L-19,86 L-20,86 L-20,85 L-21,85 L-21,84 L-23,84 L-23,83 L-24,83 L-24,82 L-25,82 L-25,81 L-26,81 L-26,80 L-27,80 L-27,79 L-28,79 L-28,78 L-29,78 L-29,77 L-30,77 L-30,76 L-31,76 L-31,74 L-32,74 L-32,72 L-33,72 L-33,70 L-34,70 L-34,68 L-35,68 L-35,66 L-36,66 L-36,64 L-37,64 L-37,61 L-38,61 L-38,57 L-39,57 L-39,35 L-38,35 L-38,32 L-37,32 L-37,29 L-36,29 L-36,27 L-35,27 L-35,25 L-34,25 L-34,22 L-33,22 L-33,21 L-32,21 L-32,19 L-31,19 L-31,18 L-30,18 L-30,16 L-29,16 L-29,15 L-28,15 L-28,14 L-27,14 L-27,13 L-26,13 L-26,12 L-25,12 L-25,11 L-23,11 L-23,10 L-22,10 L-22,9 L-21,9 L-21,8 L-20,8 L-20,7 L-18,7 L-18,6 L-16,6 L-16,5 L-14,5 L-14,4 L-12,4 L-12,3 L-9,3 L-9,2 L-7,2 L-7,1 L0,1 Z " transform="translate(468,188)" style="fill: #9EC94B;"/><path d="M0,0 L19,0 L19,1 L23,1 L23,2 L25,2 L25,3 L28,3 L28,4 L30,4 L30,5 L33,5 L33,6 L34,6 L34,7 L35,7 L35,8 L37,8 L37,9 L38,9 L38,10 L40,10 L40,11 L41,11 L41,12 L42,12 L42,13 L43,13 L43,14 L44,14 L44,15 L45,15 L45,16 L46,16 L46,18 L47,18 L47,19 L48,19 L48,21 L49,21 L49,23 L50,23 L50,25 L51,25 L51,26 L52,26 L52,28 L53,28 L53,31 L54,31 L54,36 L55,36 L55,40 L56,40 L56,53 L55,53 L55,56 L54,56 L54,60 L53,60 L53,64 L52,64 L52,66 L51,66 L51,68 L50,68 L50,70 L49,70 L49,72 L48,72 L48,74 L47,74 L47,75 L46,75 L46,76 L45,76 L45,78 L44,78 L44,79 L43,79 L43,80 L42,80 L42,81 L41,81 L41,82 L39,82 L39,83 L38,83 L38,84 L37,84 L37,85 L35,85 L35,86 L33,86 L33,87 L32,87 L32,88 L30,88 L30,89 L27,89 L27,90 L26,90 L26,91 L23,91 L23,92 L17,92 L17,93 L0,93 L0,92 L-6,92 L-6,91 L-9,91 L-9,90 L-12,90 L-12,89 L-13,89 L-13,88 L-16,88 L-16,87 L-17,87 L-17,86 L-19,86 L-19,85 L-20,85 L-20,84 L-22,84 L-22,83 L-23,83 L-23,82 L-24,82 L-24,81 L-25,81 L-25,80 L-26,80 L-26,79 L-27,79 L-27,78 L-28,78 L-28,77 L-29,77 L-29,75 L-30,75 L-30,73 L-31,73 L-31,72 L-32,72 L-32,70 L-33,70 L-33,68 L-34,68 L-34,66 L-35,66 L-35,64 L-36,64 L-36,61 L-37,61 L-37,57 L-38,57 L-38,52 L-39,52 L-39,41 L-38,41 L-38,37 L-37,37 L-37,33 L-36,33 L-36,30 L-35,30 L-35,28 L-34,28 L-34,25 L-33,25 L-33,22 L-32,22 L-32,20 L-31,20 L-31,19 L-30,19 L-30,18 L-29,18 L-29,16 L-28,16 L-28,15 L-27,15 L-27,14 L-26,14 L-26,13 L-25,13 L-25,12 L-24,12 L-24,11 L-22,11 L-22,10 L-21,10 L-21,9 L-20,9 L-20,8 L-18,8 L-18,7 L-16,7 L-16,6 L-15,6 L-15,5 L-14,5 L-14,4 L-10,4 L-10,3 L-8,3 L-8,2 L-6,2 L-6,1 L0,1 Z " transform="translate(685,188)" style="fill: #9DC84C;"/><path d="M0,0 L8,0 L8,1 L11,1 L11,2 L13,2 L13,3 L14,3 L14,4 L15,4 L15,5 L16,5 L16,6 L17,6 L17,7 L18,7 L18,9 L19,9 L19,11 L20,11 L20,15 L21,15 L21,65 L22,65 L22,67 L23,67 L23,68 L24,68 L24,69 L25,69 L25,70 L27,70 L27,71 L30,71 L30,72 L35,72 L35,71 L38,71 L38,70 L40,70 L40,69 L41,69 L41,68 L42,68 L42,66 L43,66 L43,64 L44,64 L44,13 L45,13 L45,11 L46,11 L46,8 L47,8 L47,7 L48,7 L48,6 L49,6 L49,5 L50,5 L50,4 L51,4 L51,3 L52,3 L52,2 L55,2 L55,1 L58,1 L58,0 L64,0 L64,1 L68,1 L68,2 L70,2 L70,3 L72,3 L72,4 L73,4 L73,5 L74,5 L74,6 L75,6 L75,8 L76,8 L76,10 L77,10 L77,12 L78,12 L78,64 L79,64 L79,66 L80,66 L80,68 L81,68 L81,69 L82,69 L82,70 L84,70 L84,71 L94,71 L94,72 L93,72 L93,73 L-27,73 L-27,72 L-28,72 L-28,71 L-20,71 L-20,70 L-18,70 L-18,69 L-17,69 L-17,68 L-16,68 L-16,67 L-15,67 L-15,64 L-14,64 L-14,14 L-13,14 L-13,11 L-12,11 L-12,9 L-11,9 L-11,7 L-10,7 L-10,6 L-9,6 L-9,5 L-8,5 L-8,4 L-7,4 L-7,3 L-5,3 L-5,2 L-3,2 L-3,1 L0,1 Z " transform="translate(310,209)" style="fill: #FBFDFD;"/><path d="M0,0 L8,0 L8,1 L15,1 L15,2 L19,2 L19,3 L21,3 L21,4 L23,4 L23,5 L25,5 L25,6 L27,6 L27,7 L28,7 L28,8 L29,8 L29,9 L30,9 L30,10 L31,10 L31,11 L32,11 L32,12 L33,12 L33,13 L34,13 L34,14 L35,14 L35,15 L36,15 L36,17 L37,17 L37,19 L38,19 L38,21 L39,21 L39,23 L40,23 L40,27 L41,27 L41,30 L42,30 L42,88 L41,88 L41,90 L40,90 L40,91 L38,91 L38,92 L37,92 L37,93 L25,93 L25,92 L23,92 L23,91 L22,91 L22,90 L21,90 L21,88 L20,88 L20,85 L19,85 L19,35 L18,35 L18,33 L17,33 L17,31 L16,31 L16,29 L15,29 L15,28 L14,28 L14,27 L13,27 L13,26 L12,26 L12,25 L11,25 L11,24 L9,24 L9,23 L6,23 L6,22 L-5,22 L-5,23 L-7,23 L-7,24 L-9,24 L-9,25 L-11,25 L-11,26 L-12,26 L-12,27 L-13,27 L-13,28 L-14,28 L-14,29 L-15,29 L-15,31 L-16,31 L-16,33 L-17,33 L-17,37 L-18,37 L-18,87 L-19,87 L-19,89 L-20,89 L-20,90 L-21,90 L-21,91 L-22,91 L-22,92 L-24,92 L-24,93 L-35,93 L-35,92 L-37,92 L-37,91 L-38,91 L-38,90 L-39,90 L-39,89 L-40,89 L-40,87 L-41,87 L-41,8 L-40,8 L-40,6 L-39,6 L-39,5 L-38,5 L-38,4 L-37,4 L-37,3 L-35,3 L-35,2 L-24,2 L-24,3 L-22,3 L-22,4 L-21,4 L-21,5 L-20,5 L-20,6 L-19,6 L-19,8 L-16,8 L-16,7 L-15,7 L-15,6 L-14,6 L-14,5 L-12,5 L-12,4 L-10,4 L-10,3 L-8,3 L-8,2 L-4,2 L-4,1 L0,1 Z " transform="translate(166,187)" style="fill: #0B5739;"/><path d="M0,0 L11,0 L11,1 L14,1 L14,2 L16,2 L16,3 L18,3 L18,4 L19,4 L19,5 L20,5 L20,6 L22,6 L22,7 L23,7 L23,9 L24,9 L24,10 L25,10 L25,11 L26,11 L26,13 L27,13 L27,16 L28,16 L28,18 L29,18 L29,17 L30,17 L30,16 L31,16 L31,15 L32,15 L32,14 L33,14 L33,13 L35,13 L35,12 L37,12 L37,11 L41,11 L41,10 L48,10 L48,11 L51,11 L51,12 L53,12 L53,13 L54,13 L54,16 L53,16 L53,20 L52,20 L52,22 L51,22 L51,24 L50,24 L50,25 L49,25 L49,26 L48,26 L48,27 L47,27 L47,28 L46,28 L46,29 L44,29 L44,30 L42,30 L42,31 L32,31 L32,30 L30,30 L30,33 L31,33 L31,35 L32,35 L32,37 L33,37 L33,40 L34,40 L34,42 L35,42 L35,45 L36,45 L36,47 L37,47 L37,49 L38,49 L38,52 L39,52 L39,54 L40,54 L40,57 L41,57 L41,59 L42,59 L42,62 L41,62 L41,63 L37,63 L37,61 L36,61 L36,59 L35,59 L35,57 L34,57 L34,54 L33,54 L33,52 L32,52 L32,50 L31,50 L31,47 L30,47 L30,45 L29,45 L29,43 L28,43 L28,41 L27,41 L27,43 L26,43 L26,45 L25,45 L25,48 L24,48 L24,50 L23,50 L23,53 L22,53 L22,55 L21,55 L21,57 L20,57 L20,60 L19,60 L19,62 L18,62 L18,64 L16,64 L16,65 L10,65 L10,66 L2,66 L2,67 L-9,67 L-9,68 L-10,68 L-10,69 L-9,69 L-9,70 L-7,70 L-7,71 L-6,71 L-6,72 L-5,72 L-5,73 L-4,73 L-4,74 L-3,74 L-3,75 L-1,75 L-1,76 L0,76 L0,77 L1,77 L1,78 L2,78 L2,79 L3,79 L3,80 L4,80 L4,81 L5,81 L5,82 L6,82 L6,83 L7,83 L7,84 L8,84 L8,85 L9,85 L9,86 L10,86 L10,90 L9,90 L9,94 L8,94 L8,98 L7,98 L7,101 L6,101 L6,105 L5,105 L5,109 L4,109 L4,112 L6,112 L6,111 L8,111 L8,110 L9,110 L9,109 L11,109 L11,108 L13,108 L13,107 L14,107 L14,106 L16,106 L16,105 L17,105 L17,104 L19,104 L19,103 L21,103 L21,102 L22,102 L22,101 L24,101 L24,100 L26,100 L26,99 L30,99 L30,100 L32,100 L32,101 L33,101 L33,102 L35,102 L35,103 L37,103 L37,104 L38,104 L38,105 L40,105 L40,106 L41,106 L41,107 L43,107 L43,108 L45,108 L45,109 L46,109 L46,110 L48,110 L48,111 L49,111 L49,112 L51,112 L51,113 L52,113 L52,109 L51,109 L51,105 L50,105 L50,101 L49,101 L49,97 L48,97 L48,95 L49,95 L49,94 L50,94 L50,93 L52,93 L52,94 L53,94 L53,95 L54,95 L54,99 L55,99 L55,103 L56,103 L56,107 L57,107 L57,111 L58,111 L58,115 L59,115 L59,120 L58,120 L58,121 L56,121 L56,122 L55,122 L55,123 L54,123 L54,124 L51,124 L51,123 L48,123 L48,122 L46,122 L46,121 L45,121 L45,120 L43,120 L43,119 L41,119 L41,118 L39,118 L39,117 L38,117 L38,116 L36,116 L36,115 L35,115 L35,114 L33,114 L33,113 L31,113 L31,112 L28,112 L28,111 L26,111 L26,112 L23,112 L23,113 L21,113 L21,114 L20,114 L20,115 L18,115 L18,116 L17,116 L17,117 L15,117 L15,118 L14,118 L14,119 L12,119 L12,120 L11,120 L11,121 L9,121 L9,122 L7,122 L7,123 L5,123 L5,124 L4,124 L4,125 L-4,125 L-4,124 L-5,124 L-5,123 L-7,123 L-7,122 L-8,122 L-8,117 L-7,117 L-7,111 L-6,111 L-6,107 L-5,107 L-5,105 L-4,105 L-4,101 L-3,101 L-3,97 L-2,97 L-2,95 L-1,95 L-1,89 L-2,89 L-2,88 L-3,88 L-3,87 L-4,87 L-4,86 L-5,86 L-5,85 L-7,85 L-7,83 L-9,83 L-9,82 L-10,82 L-10,81 L-12,81 L-12,80 L-13,80 L-13,79 L-14,79 L-14,78 L-15,78 L-15,77 L-16,77 L-16,76 L-17,76 L-17,75 L-18,75 L-18,74 L-19,74 L-19,73 L-21,73 L-21,70 L-22,70 L-22,68 L-23,68 L-23,65 L-22,65 L-22,62 L-21,62 L-21,61 L-20,61 L-20,60 L-17,60 L-17,59 L-11,59 L-11,58 L-2,58 L-2,57 L3,57 L3,56 L10,56 L10,55 L11,55 L11,54 L12,54 L12,51 L13,51 L13,49 L14,49 L14,47 L15,47 L15,44 L16,44 L16,42 L17,42 L17,40 L18,40 L18,38 L19,38 L19,35 L20,35 L20,34 L24,34 L24,33 L25,33 L25,28 L15,28 L15,27 L12,27 L12,26 L10,26 L10,25 L8,25 L8,24 L7,24 L7,23 L5,23 L5,22 L4,22 L4,20 L3,20 L3,19 L2,19 L2,18 L1,18 L1,16 L0,16 L0,13 L-1,13 L-1,7 L-2,7 L-2,2 L-1,2 L-1,1 L0,1 Z " transform="translate(353,1)" style="fill: #17532E;"/><path d="M0,0 L10,0 L10,1 L12,1 L12,2 L13,2 L13,3 L14,3 L14,4 L15,4 L15,5 L16,5 L16,86 L15,86 L15,87 L14,87 L14,88 L13,88 L13,89 L12,89 L12,90 L10,90 L10,91 L-1,91 L-1,90 L-2,90 L-2,89 L-4,89 L-4,88 L-5,88 L-5,86 L-6,86 L-6,84 L-7,84 L-7,8 L-6,8 L-6,5 L-5,5 L-5,4 L-4,4 L-4,3 L-3,3 L-3,2 L-2,2 L-2,1 L0,1 Z " transform="translate(235,189)" style="fill: #0B5738;"/><path d="M0,0 L11,0 L11,1 L14,1 L14,2 L16,2 L16,3 L18,3 L18,4 L20,4 L20,5 L21,5 L21,6 L22,6 L22,7 L23,7 L23,8 L24,8 L24,9 L25,9 L25,11 L26,11 L26,12 L27,12 L27,14 L28,14 L28,17 L29,17 L29,20 L30,20 L30,31 L29,31 L29,34 L28,34 L28,37 L27,37 L27,38 L26,38 L26,40 L25,40 L25,42 L24,42 L24,43 L23,43 L23,44 L22,44 L22,45 L21,45 L21,46 L19,46 L19,47 L17,47 L17,48 L16,48 L16,49 L13,49 L13,50 L10,50 L10,51 L2,51 L2,50 L-2,50 L-2,49 L-5,49 L-5,48 L-6,48 L-6,47 L-8,47 L-8,46 L-9,46 L-9,45 L-10,45 L-10,44 L-11,44 L-11,43 L-12,43 L-12,42 L-13,42 L-13,41 L-14,41 L-14,40 L-15,40 L-15,38 L-16,38 L-16,36 L-17,36 L-17,33 L-18,33 L-18,27 L-19,27 L-19,22 L-18,22 L-18,17 L-17,17 L-17,15 L-16,15 L-16,13 L-15,13 L-15,11 L-14,11 L-14,10 L-13,10 L-13,8 L-12,8 L-12,7 L-11,7 L-11,6 L-10,6 L-10,5 L-9,5 L-9,4 L-7,4 L-7,3 L-5,3 L-5,2 L-3,2 L-3,1 L0,1 Z " transform="translate(688,209)" style="fill: #FDFEFA;"/><path d="M0,0 L10,0 L10,1 L13,1 L13,2 L15,2 L15,3 L17,3 L17,4 L18,4 L18,5 L19,5 L19,6 L21,6 L21,7 L22,7 L22,8 L23,8 L23,10 L24,10 L24,12 L25,12 L25,13 L26,13 L26,15 L27,15 L27,19 L28,19 L28,33 L27,33 L27,36 L26,36 L26,38 L25,38 L25,40 L24,40 L24,41 L23,41 L23,43 L22,43 L22,44 L21,44 L21,45 L20,45 L20,46 L18,46 L18,47 L17,47 L17,48 L15,48 L15,49 L13,49 L13,50 L9,50 L9,51 L0,51 L0,50 L-4,50 L-4,49 L-6,49 L-6,48 L-8,48 L-8,47 L-10,47 L-10,46 L-11,46 L-11,45 L-12,45 L-12,44 L-13,44 L-13,42 L-14,42 L-14,41 L-15,41 L-15,40 L-16,40 L-16,38 L-17,38 L-17,36 L-18,36 L-18,33 L-19,33 L-19,17 L-18,17 L-18,15 L-17,15 L-17,13 L-16,13 L-16,11 L-15,11 L-15,9 L-14,9 L-14,8 L-13,8 L-13,7 L-12,7 L-12,6 L-11,6 L-11,5 L-9,5 L-9,4 L-8,4 L-8,3 L-6,3 L-6,2 L-4,2 L-4,1 L0,1 Z " transform="translate(579,209)" style="fill: #FDFEFA;"/><path d="M0,0 L2,0 L2,1 L5,1 L5,2 L6,2 L6,3 L7,3 L7,5 L8,5 L8,8 L7,8 L7,10 L6,10 L6,11 L5,11 L5,12 L4,12 L4,13 L3,13 L3,14 L2,14 L2,16 L1,16 L1,17 L0,17 L0,18 L-1,18 L-1,19 L-2,19 L-2,20 L-3,20 L-3,21 L-4,21 L-4,22 L-5,22 L-5,23 L-6,23 L-6,24 L-7,24 L-7,25 L-8,25 L-8,26 L-9,26 L-9,27 L-10,27 L-10,28 L-11,28 L-11,29 L-12,29 L-12,30 L-13,30 L-13,31 L-14,31 L-14,32 L-15,32 L-15,33 L-16,33 L-16,35 L-17,35 L-17,36 L-18,36 L-18,37 L-19,37 L-19,38 L-20,38 L-20,39 L-21,39 L-21,40 L-22,40 L-22,41 L-30,41 L-30,40 L-31,40 L-31,39 L-32,39 L-32,38 L-33,38 L-33,37 L-34,37 L-34,36 L-35,36 L-35,35 L-36,35 L-36,34 L-37,34 L-37,32 L-39,32 L-39,30 L-40,30 L-40,29 L-41,29 L-41,28 L-42,28 L-42,27 L-43,27 L-43,26 L-44,26 L-44,20 L-43,20 L-43,18 L-42,18 L-42,17 L-40,17 L-40,16 L-36,16 L-36,17 L-34,17 L-34,18 L-33,18 L-33,19 L-32,19 L-32,20 L-31,20 L-31,21 L-30,21 L-30,23 L-29,23 L-29,24 L-28,24 L-28,25 L-27,25 L-27,26 L-25,26 L-25,25 L-24,25 L-24,24 L-23,24 L-23,23 L-22,23 L-22,21 L-21,21 L-21,20 L-20,20 L-20,19 L-19,19 L-19,18 L-18,18 L-18,17 L-17,17 L-17,16 L-16,16 L-16,15 L-15,15 L-15,14 L-14,14 L-14,13 L-13,13 L-13,12 L-12,12 L-12,11 L-11,11 L-11,10 L-10,10 L-10,9 L-9,9 L-9,8 L-8,8 L-8,7 L-7,7 L-7,6 L-6,6 L-6,4 L-5,4 L-5,3 L-4,3 L-4,2 L-2,2 L-2,1 L0,1 Z " transform="translate(494,212)" style="fill: #FAFDF4;"/><path d="M0,0 L4,0 L4,1 L3,1 L3,4 L2,4 L2,6 L1,6 L1,9 L0,9 L0,11 L-1,11 L-1,14 L-2,14 L-2,16 L-3,16 L-3,18 L-4,18 L-4,21 L-5,21 L-5,23 L-6,23 L-6,25 L-10,25 L-10,26 L-18,26 L-18,27 L-27,27 L-27,28 L-36,28 L-36,29 L-37,29 L-37,30 L-38,30 L-38,31 L-39,31 L-39,33 L-38,33 L-38,35 L-37,35 L-37,36 L-36,36 L-36,37 L-35,37 L-35,38 L-34,38 L-34,39 L-33,39 L-33,40 L-32,40 L-32,41 L-30,41 L-30,42 L-29,42 L-29,43 L-28,43 L-28,44 L-27,44 L-27,45 L-26,45 L-26,46 L-25,46 L-25,47 L-24,47 L-24,48 L-22,48 L-22,49 L-21,49 L-21,50 L-20,50 L-20,51 L-19,51 L-19,52 L-18,52 L-18,53 L-17,53 L-17,59 L-18,59 L-18,64 L-19,64 L-19,68 L-20,68 L-20,71 L-21,71 L-21,75 L-22,75 L-22,79 L-23,79 L-23,82 L-24,82 L-24,83 L-23,83 L-23,86 L-21,86 L-21,87 L-18,87 L-18,86 L-16,86 L-16,85 L-15,85 L-15,84 L-13,84 L-13,83 L-11,83 L-11,82 L-10,82 L-10,81 L-8,81 L-8,80 L-7,80 L-7,79 L-5,79 L-5,78 L-3,78 L-3,77 L-2,77 L-2,76 L0,76 L0,75 L2,75 L2,74 L4,74 L4,73 L5,73 L5,72 L7,72 L7,71 L9,71 L9,72 L10,72 L10,73 L12,73 L12,74 L14,74 L14,75 L15,75 L15,76 L17,76 L17,77 L19,77 L19,78 L20,78 L20,79 L22,79 L22,80 L23,80 L23,81 L25,81 L25,82 L27,82 L27,83 L28,83 L28,84 L30,84 L30,85 L32,85 L32,86 L34,86 L34,87 L36,87 L36,88 L35,88 L35,89 L34,89 L34,90 L31,90 L31,89 L28,89 L28,88 L26,88 L26,87 L25,87 L25,86 L23,86 L23,85 L21,85 L21,84 L19,84 L19,83 L18,83 L18,82 L16,82 L16,81 L15,81 L15,80 L13,80 L13,79 L11,79 L11,78 L8,78 L8,77 L6,77 L6,78 L3,78 L3,79 L1,79 L1,80 L0,80 L0,81 L-2,81 L-2,82 L-3,82 L-3,83 L-5,83 L-5,84 L-6,84 L-6,85 L-8,85 L-8,86 L-9,86 L-9,87 L-11,87 L-11,88 L-13,88 L-13,89 L-15,89 L-15,90 L-16,90 L-16,91 L-24,91 L-24,90 L-25,90 L-25,89 L-27,89 L-27,88 L-28,88 L-28,83 L-27,83 L-27,77 L-26,77 L-26,73 L-25,73 L-25,71 L-24,71 L-24,67 L-23,67 L-23,63 L-22,63 L-22,61 L-21,61 L-21,55 L-22,55 L-22,54 L-23,54 L-23,53 L-24,53 L-24,52 L-25,52 L-25,51 L-27,51 L-27,49 L-29,49 L-29,48 L-30,48 L-30,47 L-32,47 L-32,46 L-33,46 L-33,45 L-34,45 L-34,44 L-35,44 L-35,43 L-36,43 L-36,42 L-37,42 L-37,41 L-38,41 L-38,40 L-39,40 L-39,39 L-41,39 L-41,36 L-42,36 L-42,34 L-43,34 L-43,31 L-42,31 L-42,28 L-41,28 L-41,27 L-40,27 L-40,26 L-37,26 L-37,25 L-31,25 L-31,24 L-22,24 L-22,23 L-17,23 L-17,22 L-10,22 L-10,21 L-9,21 L-9,20 L-8,20 L-8,17 L-7,17 L-7,15 L-6,15 L-6,13 L-5,13 L-5,10 L-4,10 L-4,8 L-3,8 L-3,6 L-2,6 L-2,4 L-1,4 L-1,1 L0,1 Z " transform="translate(373,35)" style="fill: #99C869;"/><path d="M0,0 L1,0 L1,1 L2,1 L2,4 L3,4 L3,6 L4,6 L4,9 L5,9 L5,12 L6,12 L6,15 L7,15 L7,18 L8,18 L8,20 L9,20 L9,23 L10,23 L10,26 L11,26 L11,29 L12,29 L12,32 L13,32 L13,34 L14,34 L14,37 L15,37 L15,40 L16,40 L16,43 L17,43 L17,45 L18,45 L18,46 L-16,46 L-16,44 L-15,44 L-15,41 L-14,41 L-14,38 L-13,38 L-13,35 L-12,35 L-12,33 L-11,33 L-11,30 L-10,30 L-10,27 L-9,27 L-9,24 L-8,24 L-8,22 L-7,22 L-7,19 L-6,19 L-6,16 L-5,16 L-5,14 L-4,14 L-4,11 L-3,11 L-3,8 L-2,8 L-2,6 L-1,6 L-1,3 L0,3 Z " transform="translate(55,185)" style="fill: #F9FDFC;"/><path d="M0,0 L7,0 L7,1 L10,1 L10,2 L12,2 L12,3 L13,3 L13,4 L14,4 L14,5 L15,5 L15,7 L16,7 L16,9 L17,9 L17,18 L16,18 L16,21 L15,21 L15,22 L14,22 L14,23 L13,23 L13,24 L12,24 L12,25 L10,25 L10,26 L8,26 L8,27 L0,27 L0,26 L-2,26 L-2,25 L-4,25 L-4,24 L-5,24 L-5,23 L-6,23 L-6,22 L-7,22 L-7,21 L-8,21 L-8,19 L-9,19 L-9,8 L-8,8 L-8,6 L-7,6 L-7,5 L-6,5 L-6,4 L-5,4 L-5,3 L-4,3 L-4,2 L-2,2 L-2,1 L0,1 Z " transform="translate(236,150)" style="fill: #0F583A;"/><path d="M0,0 L1,0 L1,41 L-57,41 L-57,40 L-58,40 L-58,39 L-55,39 L-55,40 L-38,40 L-38,39 L-32,39 L-32,38 L-29,38 L-29,37 L-28,37 L-28,36 L-25,36 L-25,35 L-23,35 L-23,34 L-22,34 L-22,33 L-20,33 L-20,32 L-18,32 L-18,31 L-17,31 L-17,30 L-16,30 L-16,29 L-14,29 L-14,28 L-13,28 L-13,27 L-12,27 L-12,26 L-11,26 L-11,25 L-10,25 L-10,23 L-9,23 L-9,22 L-8,22 L-8,21 L-7,21 L-7,19 L-6,19 L-6,17 L-5,17 L-5,15 L-4,15 L-4,13 L-3,13 L-3,11 L-2,11 L-2,7 L-1,7 L-1,3 L0,3 Z " transform="translate(740,241)" style="fill: #F9FCF2;"/><path d="M0,0 L9,0 L9,1 L17,1 L17,2 L24,2 L24,3 L25,3 L25,8 L24,8 L24,9 L23,9 L23,10 L22,10 L22,11 L21,11 L21,12 L20,12 L20,13 L18,13 L18,14 L17,14 L17,15 L16,15 L16,16 L15,16 L15,17 L14,17 L14,18 L13,18 L13,19 L11,19 L11,20 L10,20 L10,21 L9,21 L9,22 L8,22 L8,23 L7,23 L7,24 L6,24 L6,25 L5,25 L5,26 L4,26 L4,27 L0,27 L0,26 L-1,26 L-1,23 L0,23 L0,22 L1,22 L1,21 L2,21 L2,20 L3,20 L3,19 L4,19 L4,18 L5,18 L5,17 L6,17 L6,16 L8,16 L8,15 L9,15 L9,14 L10,14 L10,13 L11,13 L11,12 L12,12 L12,11 L14,11 L14,10 L15,10 L15,9 L16,9 L16,8 L17,8 L17,7 L15,7 L15,6 L4,6 L4,5 L0,5 L0,4 L-1,4 L-1,1 L0,1 Z " transform="translate(402,62)" style="fill: #194737;"/><path d="M0,0 L4,0 L4,1 L7,1 L7,2 L10,2 L10,3 L11,3 L11,4 L13,4 L13,5 L14,5 L14,6 L15,6 L15,7 L16,7 L16,8 L17,8 L17,10 L18,10 L18,12 L19,12 L19,14 L20,14 L20,18 L12,18 L12,17 L10,17 L10,16 L8,16 L8,15 L7,15 L7,14 L5,14 L5,13 L4,13 L4,12 L3,12 L3,10 L2,10 L2,8 L1,8 L1,5 L0,5 Z " transform="translate(357,6)" style="fill: #90C554;"/><path d="M0,0 L2,0 L2,1 L3,1 L3,2 L4,2 L4,4 L3,4 L3,5 L2,5 L2,7 L1,7 L1,8 L0,8 L0,9 L-1,9 L-1,10 L-2,10 L-2,11 L-3,11 L-3,12 L-4,12 L-4,14 L-5,14 L-5,15 L-6,15 L-6,16 L-7,16 L-7,17 L-8,17 L-8,18 L-9,18 L-9,19 L-10,19 L-10,20 L-11,20 L-11,21 L-12,21 L-12,22 L-16,22 L-16,21 L-17,21 L-17,20 L-18,20 L-18,19 L-19,19 L-19,18 L-20,18 L-20,17 L-21,17 L-21,16 L-22,16 L-22,15 L-23,15 L-23,12 L-22,12 L-22,11 L-19,11 L-19,12 L-17,12 L-17,13 L-16,13 L-16,14 L-15,14 L-15,15 L-13,15 L-13,14 L-12,14 L-12,13 L-11,13 L-11,11 L-10,11 L-10,10 L-9,10 L-9,9 L-8,9 L-8,8 L-7,8 L-7,7 L-6,7 L-6,6 L-5,6 L-5,5 L-4,5 L-4,4 L-3,4 L-3,3 L-2,3 L-2,2 L-1,2 L-1,1 L0,1 Z " transform="translate(391,70)" style="fill: #164A38;"/><path d="M0,0 L6,0 L6,1 L7,1 L7,2 L6,2 L6,4 L5,4 L5,6 L4,6 L4,8 L3,8 L3,9 L1,9 L1,10 L0,10 L0,11 L-10,11 L-10,8 L-9,8 L-9,7 L-8,7 L-8,5 L-7,5 L-7,4 L-6,4 L-6,3 L-4,3 L-4,2 L-3,2 L-3,1 L0,1 Z " transform="translate(394,16)" style="fill: #89C558;"/><path d="M0,0 L1,0 L1,8 L2,8 L2,10 L3,10 L3,12 L4,12 L4,13 L6,13 L6,14 L8,14 L8,15 L14,15 L14,16 L13,16 L13,17 L0,17 Z " transform="translate(0,265)" style="fill: #EFF8F6;"/></svg>